<mxfile host="app.diagrams.net" agent="Mozilla/5.0 (Linux; Android 10; K) AppleWebKit/537.36 (KHTML, like Gecko) Chrome/134.0.0.0 Mobile Safari/537.36" version="26.1.1">
  <diagram id="6a731a19-8d31-9384-78a2-239565b7b9f0" name="FLOWCHART ">
    <mxGraphModel grid="1" page="1" gridSize="10" guides="1" tooltips="1" connect="1" arrows="1" fold="1" pageScale="1" pageWidth="1169" pageHeight="827" background="none" math="0" shadow="0">
      <root>
        <mxCell id="0" />
        <mxCell id="1" parent="0" />
        <mxCell id="2" value="start" style="shape=mxgraph.flowchart.terminator;strokeWidth=2;gradientColor=none;gradientDirection=north;fontStyle=0;html=1;" vertex="1" parent="1">
          <mxGeometry x="425" y="330" width="120" height="30" as="geometry" />
        </mxCell>
        <mxCell id="7" style="fontStyle=1;strokeColor=#003366;strokeWidth=1;html=1;entryX=0.5;entryY=0;entryDx=0;entryDy=0;" edge="1" parent="1" source="2" target="kPTPFct4EZHVwnSOma2R-57">
          <mxGeometry relative="1" as="geometry">
            <mxPoint x="490" y="430" as="targetPoint" />
          </mxGeometry>
        </mxCell>
        <mxCell id="kPTPFct4EZHVwnSOma2R-134" value="" style="edgeStyle=orthogonalEdgeStyle;rounded=0;orthogonalLoop=1;jettySize=auto;html=1;" edge="1" parent="1" source="kPTPFct4EZHVwnSOma2R-57" target="kPTPFct4EZHVwnSOma2R-133">
          <mxGeometry relative="1" as="geometry" />
        </mxCell>
        <mxCell id="kPTPFct4EZHVwnSOma2R-57" value="homepages" style="rounded=1;whiteSpace=wrap;html=1;absoluteArcSize=1;arcSize=25;strokeWidth=2;" vertex="1" parent="1">
          <mxGeometry x="440" y="400" width="90" height="70" as="geometry" />
        </mxCell>
        <mxCell id="kPTPFct4EZHVwnSOma2R-59" style="fontStyle=1;strokeColor=#003366;strokeWidth=1;html=1;exitX=0.5;exitY=1;exitDx=0;exitDy=0;entryX=0.5;entryY=0;entryDx=0;entryDy=0;entryPerimeter=0;" edge="1" parent="1" source="kPTPFct4EZHVwnSOma2R-57" target="kPTPFct4EZHVwnSOma2R-60">
          <mxGeometry relative="1" as="geometry">
            <mxPoint x="485" y="500" as="sourcePoint" />
            <mxPoint x="485" y="530" as="targetPoint" />
          </mxGeometry>
        </mxCell>
        <mxCell id="kPTPFct4EZHVwnSOma2R-100" style="edgeStyle=orthogonalEdgeStyle;rounded=0;orthogonalLoop=1;jettySize=auto;html=1;entryX=0.445;entryY=-0.009;entryDx=0;entryDy=0;entryPerimeter=0;" edge="1" parent="1" source="kPTPFct4EZHVwnSOma2R-60" target="kPTPFct4EZHVwnSOma2R-62">
          <mxGeometry relative="1" as="geometry">
            <mxPoint x="290" y="555" as="targetPoint" />
          </mxGeometry>
        </mxCell>
        <mxCell id="kPTPFct4EZHVwnSOma2R-101" style="edgeStyle=orthogonalEdgeStyle;rounded=0;orthogonalLoop=1;jettySize=auto;html=1;" edge="1" parent="1" source="kPTPFct4EZHVwnSOma2R-60" target="kPTPFct4EZHVwnSOma2R-93">
          <mxGeometry relative="1" as="geometry">
            <mxPoint x="670" y="555" as="targetPoint" />
          </mxGeometry>
        </mxCell>
        <mxCell id="kPTPFct4EZHVwnSOma2R-60" value="Register / login&amp;nbsp;" style="strokeWidth=2;html=1;shape=mxgraph.flowchart.decision;whiteSpace=wrap;" vertex="1" parent="1">
          <mxGeometry x="422.5" y="500" width="125" height="110" as="geometry" />
        </mxCell>
        <mxCell id="kPTPFct4EZHVwnSOma2R-61" value="yes" style="text;html=1;align=center;verticalAlign=middle;resizable=0;points=[];autosize=1;strokeColor=none;fillColor=none;" vertex="1" parent="1">
          <mxGeometry x="410" y="510" width="40" height="30" as="geometry" />
        </mxCell>
        <mxCell id="kPTPFct4EZHVwnSOma2R-80" value="" style="edgeStyle=orthogonalEdgeStyle;rounded=0;orthogonalLoop=1;jettySize=auto;html=1;" edge="1" parent="1" source="kPTPFct4EZHVwnSOma2R-62" target="kPTPFct4EZHVwnSOma2R-79">
          <mxGeometry relative="1" as="geometry" />
        </mxCell>
        <mxCell id="kPTPFct4EZHVwnSOma2R-85" style="edgeStyle=orthogonalEdgeStyle;rounded=0;orthogonalLoop=1;jettySize=auto;html=1;entryX=0;entryY=0.75;entryDx=0;entryDy=0;dashed=1;" edge="1" parent="1" source="kPTPFct4EZHVwnSOma2R-62" target="kPTPFct4EZHVwnSOma2R-83">
          <mxGeometry relative="1" as="geometry">
            <mxPoint x="140" y="1080" as="targetPoint" />
            <Array as="points">
              <mxPoint x="160" y="655" />
              <mxPoint x="160" y="1091" />
            </Array>
          </mxGeometry>
        </mxCell>
        <mxCell id="kPTPFct4EZHVwnSOma2R-62" value="Register Pages" style="rounded=1;whiteSpace=wrap;html=1;absoluteArcSize=1;arcSize=14;strokeWidth=2;" vertex="1" parent="1">
          <mxGeometry x="235" y="600" width="110" height="110" as="geometry" />
        </mxCell>
        <mxCell id="kPTPFct4EZHVwnSOma2R-78" value="" style="edgeStyle=orthogonalEdgeStyle;rounded=0;orthogonalLoop=1;jettySize=auto;html=1;" edge="1" parent="1" source="kPTPFct4EZHVwnSOma2R-66" target="kPTPFct4EZHVwnSOma2R-83">
          <mxGeometry relative="1" as="geometry">
            <mxPoint x="290" y="1030" as="targetPoint" />
          </mxGeometry>
        </mxCell>
        <mxCell id="kPTPFct4EZHVwnSOma2R-66" value="Login pages" style="rounded=1;whiteSpace=wrap;html=1;absoluteArcSize=1;arcSize=14;strokeWidth=2;" vertex="1" parent="1">
          <mxGeometry x="237.5" y="890" width="105" height="100" as="geometry" />
        </mxCell>
        <mxCell id="kPTPFct4EZHVwnSOma2R-71" value="no" style="text;html=1;align=center;verticalAlign=middle;resizable=0;points=[];autosize=1;strokeColor=none;fillColor=none;" vertex="1" parent="1">
          <mxGeometry x="540" y="560" width="40" height="30" as="geometry" />
        </mxCell>
        <mxCell id="kPTPFct4EZHVwnSOma2R-81" value="" style="edgeStyle=orthogonalEdgeStyle;rounded=0;orthogonalLoop=1;jettySize=auto;html=1;" edge="1" parent="1" source="kPTPFct4EZHVwnSOma2R-79" target="kPTPFct4EZHVwnSOma2R-66">
          <mxGeometry relative="1" as="geometry" />
        </mxCell>
        <mxCell id="kPTPFct4EZHVwnSOma2R-79" value="uersname/ password" style="shape=parallelogram;perimeter=parallelogramPerimeter;whiteSpace=wrap;html=1;fixedSize=1;" vertex="1" parent="1">
          <mxGeometry x="218.75" y="760" width="142.5" height="70" as="geometry" />
        </mxCell>
        <mxCell id="kPTPFct4EZHVwnSOma2R-89" value="" style="edgeStyle=orthogonalEdgeStyle;rounded=0;orthogonalLoop=1;jettySize=auto;html=1;" edge="1" parent="1" source="kPTPFct4EZHVwnSOma2R-83" target="kPTPFct4EZHVwnSOma2R-88">
          <mxGeometry relative="1" as="geometry" />
        </mxCell>
        <mxCell id="kPTPFct4EZHVwnSOma2R-83" value="Login / password&amp;nbsp;" style="shape=parallelogram;perimeter=parallelogramPerimeter;whiteSpace=wrap;html=1;fixedSize=1;" vertex="1" parent="1">
          <mxGeometry x="225" y="1040" width="130" height="70" as="geometry" />
        </mxCell>
        <mxCell id="kPTPFct4EZHVwnSOma2R-87" value="if Registerted" style="text;html=1;align=center;verticalAlign=middle;resizable=0;points=[];autosize=1;strokeColor=none;fillColor=none;" vertex="1" parent="1">
          <mxGeometry x="50" y="850" width="90" height="30" as="geometry" />
        </mxCell>
        <mxCell id="kPTPFct4EZHVwnSOma2R-104" value="" style="edgeStyle=orthogonalEdgeStyle;rounded=0;orthogonalLoop=1;jettySize=auto;html=1;" edge="1" parent="1" source="kPTPFct4EZHVwnSOma2R-88" target="kPTPFct4EZHVwnSOma2R-103">
          <mxGeometry relative="1" as="geometry" />
        </mxCell>
        <mxCell id="kPTPFct4EZHVwnSOma2R-88" value="Login&amp;nbsp;" style="rounded=1;whiteSpace=wrap;html=1;absoluteArcSize=1;arcSize=14;strokeWidth=2;" vertex="1" parent="1">
          <mxGeometry x="260" y="1180" width="60" height="40" as="geometry" />
        </mxCell>
        <mxCell id="kPTPFct4EZHVwnSOma2R-108" value="" style="edgeStyle=orthogonalEdgeStyle;rounded=0;orthogonalLoop=1;jettySize=auto;html=1;" edge="1" parent="1" source="kPTPFct4EZHVwnSOma2R-90" target="kPTPFct4EZHVwnSOma2R-105">
          <mxGeometry relative="1" as="geometry" />
        </mxCell>
        <mxCell id="kPTPFct4EZHVwnSOma2R-119" style="edgeStyle=orthogonalEdgeStyle;rounded=0;orthogonalLoop=1;jettySize=auto;html=1;entryX=0;entryY=0.5;entryDx=0;entryDy=0;entryPerimeter=0;dashed=1;" edge="1" parent="1" source="kPTPFct4EZHVwnSOma2R-90" target="kPTPFct4EZHVwnSOma2R-107">
          <mxGeometry relative="1" as="geometry">
            <mxPoint x="550" y="1080" as="targetPoint" />
            <Array as="points">
              <mxPoint x="660" y="1075" />
            </Array>
          </mxGeometry>
        </mxCell>
        <mxCell id="kPTPFct4EZHVwnSOma2R-90" value="Admin Dashboard" style="rounded=1;whiteSpace=wrap;html=1;absoluteArcSize=1;arcSize=14;strokeWidth=2;" vertex="1" parent="1">
          <mxGeometry x="650" y="625" width="105" height="60" as="geometry" />
        </mxCell>
        <mxCell id="kPTPFct4EZHVwnSOma2R-109" value="" style="edgeStyle=orthogonalEdgeStyle;rounded=0;orthogonalLoop=1;jettySize=auto;html=1;" edge="1" parent="1" source="kPTPFct4EZHVwnSOma2R-93" target="kPTPFct4EZHVwnSOma2R-90">
          <mxGeometry relative="1" as="geometry" />
        </mxCell>
        <mxCell id="kPTPFct4EZHVwnSOma2R-93" value="Login&amp;nbsp;" style="rounded=1;whiteSpace=wrap;html=1;absoluteArcSize=1;arcSize=14;strokeWidth=2;" vertex="1" parent="1">
          <mxGeometry x="672.5" y="535" width="60" height="40" as="geometry" />
        </mxCell>
        <mxCell id="kPTPFct4EZHVwnSOma2R-118" value="" style="edgeStyle=orthogonalEdgeStyle;rounded=0;orthogonalLoop=1;jettySize=auto;html=1;" edge="1" parent="1" source="kPTPFct4EZHVwnSOma2R-103" target="kPTPFct4EZHVwnSOma2R-107">
          <mxGeometry relative="1" as="geometry" />
        </mxCell>
        <mxCell id="kPTPFct4EZHVwnSOma2R-103" value="Admin Dashboard" style="rounded=1;whiteSpace=wrap;html=1;absoluteArcSize=1;arcSize=14;strokeWidth=2;" vertex="1" parent="1">
          <mxGeometry x="650" y="1170" width="105" height="60" as="geometry" />
        </mxCell>
        <mxCell id="kPTPFct4EZHVwnSOma2R-110" value="" style="edgeStyle=orthogonalEdgeStyle;rounded=0;orthogonalLoop=1;jettySize=auto;html=1;" edge="1" parent="1" source="kPTPFct4EZHVwnSOma2R-105" target="kPTPFct4EZHVwnSOma2R-106">
          <mxGeometry relative="1" as="geometry" />
        </mxCell>
        <mxCell id="kPTPFct4EZHVwnSOma2R-113" value="" style="edgeStyle=orthogonalEdgeStyle;rounded=0;orthogonalLoop=1;jettySize=auto;html=1;" edge="1" parent="1" source="kPTPFct4EZHVwnSOma2R-105" target="kPTPFct4EZHVwnSOma2R-112">
          <mxGeometry relative="1" as="geometry" />
        </mxCell>
        <mxCell id="kPTPFct4EZHVwnSOma2R-105" value="if cagayan de oro&amp;nbsp;" style="strokeWidth=2;html=1;shape=mxgraph.flowchart.decision;whiteSpace=wrap;" vertex="1" parent="1">
          <mxGeometry x="640" y="730" width="125" height="110" as="geometry" />
        </mxCell>
        <mxCell id="kPTPFct4EZHVwnSOma2R-111" value="" style="edgeStyle=orthogonalEdgeStyle;rounded=0;orthogonalLoop=1;jettySize=auto;html=1;" edge="1" parent="1" source="kPTPFct4EZHVwnSOma2R-106" target="kPTPFct4EZHVwnSOma2R-107">
          <mxGeometry relative="1" as="geometry" />
        </mxCell>
        <mxCell id="kPTPFct4EZHVwnSOma2R-116" value="" style="edgeStyle=orthogonalEdgeStyle;rounded=0;orthogonalLoop=1;jettySize=auto;html=1;" edge="1" parent="1" source="kPTPFct4EZHVwnSOma2R-106" target="kPTPFct4EZHVwnSOma2R-114">
          <mxGeometry relative="1" as="geometry" />
        </mxCell>
        <mxCell id="kPTPFct4EZHVwnSOma2R-106" value="if Lanao del norte" style="strokeWidth=2;html=1;shape=mxgraph.flowchart.decision;whiteSpace=wrap;" vertex="1" parent="1">
          <mxGeometry x="640" y="870" width="125" height="110" as="geometry" />
        </mxCell>
        <mxCell id="kPTPFct4EZHVwnSOma2R-117" value="" style="edgeStyle=orthogonalEdgeStyle;rounded=0;orthogonalLoop=1;jettySize=auto;html=1;" edge="1" parent="1" source="kPTPFct4EZHVwnSOma2R-107" target="kPTPFct4EZHVwnSOma2R-115">
          <mxGeometry relative="1" as="geometry" />
        </mxCell>
        <mxCell id="kPTPFct4EZHVwnSOma2R-107" value="if cag" style="strokeWidth=2;html=1;shape=mxgraph.flowchart.decision;whiteSpace=wrap;" vertex="1" parent="1">
          <mxGeometry x="640" y="1020" width="125" height="110" as="geometry" />
        </mxCell>
        <mxCell id="kPTPFct4EZHVwnSOma2R-125" style="edgeStyle=orthogonalEdgeStyle;rounded=0;orthogonalLoop=1;jettySize=auto;html=1;entryX=0.5;entryY=0;entryDx=0;entryDy=0;" edge="1" parent="1" source="kPTPFct4EZHVwnSOma2R-112" target="kPTPFct4EZHVwnSOma2R-121">
          <mxGeometry relative="1" as="geometry">
            <mxPoint x="1050" y="785" as="targetPoint" />
          </mxGeometry>
        </mxCell>
        <mxCell id="kPTPFct4EZHVwnSOma2R-112" value="edit bus / delete" style="shape=parallelogram;perimeter=parallelogramPerimeter;whiteSpace=wrap;html=1;fixedSize=1;" vertex="1" parent="1">
          <mxGeometry x="820" y="755" width="120" height="60" as="geometry" />
        </mxCell>
        <mxCell id="kPTPFct4EZHVwnSOma2R-123" value="" style="edgeStyle=orthogonalEdgeStyle;rounded=0;orthogonalLoop=1;jettySize=auto;html=1;" edge="1" parent="1" source="kPTPFct4EZHVwnSOma2R-114" target="kPTPFct4EZHVwnSOma2R-121">
          <mxGeometry relative="1" as="geometry" />
        </mxCell>
        <mxCell id="kPTPFct4EZHVwnSOma2R-114" value="edit bus / delete" style="shape=parallelogram;perimeter=parallelogramPerimeter;whiteSpace=wrap;html=1;fixedSize=1;" vertex="1" parent="1">
          <mxGeometry x="820" y="895" width="120" height="60" as="geometry" />
        </mxCell>
        <mxCell id="kPTPFct4EZHVwnSOma2R-126" style="edgeStyle=orthogonalEdgeStyle;rounded=0;orthogonalLoop=1;jettySize=auto;html=1;entryX=0.5;entryY=1;entryDx=0;entryDy=0;" edge="1" parent="1" source="kPTPFct4EZHVwnSOma2R-115" target="kPTPFct4EZHVwnSOma2R-121">
          <mxGeometry relative="1" as="geometry">
            <mxPoint x="1060" y="1075" as="targetPoint" />
          </mxGeometry>
        </mxCell>
        <mxCell id="kPTPFct4EZHVwnSOma2R-115" value="edit bus / delete" style="shape=parallelogram;perimeter=parallelogramPerimeter;whiteSpace=wrap;html=1;fixedSize=1;" vertex="1" parent="1">
          <mxGeometry x="820" y="1045" width="120" height="60" as="geometry" />
        </mxCell>
        <mxCell id="kPTPFct4EZHVwnSOma2R-120" value="if you have an account already&amp;nbsp;" style="text;html=1;align=center;verticalAlign=middle;resizable=0;points=[];autosize=1;strokeColor=none;fillColor=none;" vertex="1" parent="1">
          <mxGeometry x="380" y="840" width="190" height="30" as="geometry" />
        </mxCell>
        <mxCell id="kPTPFct4EZHVwnSOma2R-128" value="" style="edgeStyle=orthogonalEdgeStyle;rounded=0;orthogonalLoop=1;jettySize=auto;html=1;" edge="1" parent="1" source="kPTPFct4EZHVwnSOma2R-121" target="kPTPFct4EZHVwnSOma2R-127">
          <mxGeometry relative="1" as="geometry" />
        </mxCell>
        <mxCell id="kPTPFct4EZHVwnSOma2R-121" value="add bus" style="rounded=1;whiteSpace=wrap;html=1;absoluteArcSize=1;arcSize=14;strokeWidth=2;" vertex="1" parent="1">
          <mxGeometry x="1020" y="905" width="60" height="40" as="geometry" />
        </mxCell>
        <mxCell id="kPTPFct4EZHVwnSOma2R-130" value="" style="edgeStyle=orthogonalEdgeStyle;rounded=0;orthogonalLoop=1;jettySize=auto;html=1;" edge="1" parent="1" source="kPTPFct4EZHVwnSOma2R-127" target="kPTPFct4EZHVwnSOma2R-129">
          <mxGeometry relative="1" as="geometry" />
        </mxCell>
        <mxCell id="kPTPFct4EZHVwnSOma2R-127" value="Sales Report" style="rounded=0;whiteSpace=wrap;html=1;" vertex="1" parent="1">
          <mxGeometry x="1140" y="895" width="120" height="60" as="geometry" />
        </mxCell>
        <mxCell id="kPTPFct4EZHVwnSOma2R-132" value="" style="edgeStyle=orthogonalEdgeStyle;rounded=0;orthogonalLoop=1;jettySize=auto;html=1;" edge="1" parent="1" source="kPTPFct4EZHVwnSOma2R-129" target="kPTPFct4EZHVwnSOma2R-131">
          <mxGeometry relative="1" as="geometry" />
        </mxCell>
        <mxCell id="kPTPFct4EZHVwnSOma2R-129" value="Logout" style="rounded=1;whiteSpace=wrap;html=1;absoluteArcSize=1;arcSize=14;strokeWidth=2;" vertex="1" parent="1">
          <mxGeometry x="1330" y="905" width="60" height="40" as="geometry" />
        </mxCell>
        <mxCell id="kPTPFct4EZHVwnSOma2R-131" value="A" style="verticalLabelPosition=bottom;verticalAlign=top;html=1;shape=mxgraph.flowchart.on-page_reference;" vertex="1" parent="1">
          <mxGeometry x="1440" y="905" width="45" height="40" as="geometry" />
        </mxCell>
        <mxCell id="kPTPFct4EZHVwnSOma2R-133" value="A" style="verticalLabelPosition=bottom;verticalAlign=top;html=1;shape=mxgraph.flowchart.on-page_reference;" vertex="1" parent="1">
          <mxGeometry x="570" y="415" width="45" height="40" as="geometry" />
        </mxCell>
        <mxCell id="kPTPFct4EZHVwnSOma2R-135" value="&lt;span id=&quot;docs-internal-guid-e513d3fb-7fff-9a2f-b517-c671b91760b9&quot;&gt;&lt;span style=&quot;font-size: 14pt; font-family: Arial, sans-serif; color: rgb(0, 0, 0); background-color: transparent; font-weight: 700; font-variant-numeric: normal; font-variant-east-asian: normal; font-variant-alternates: normal; font-variant-position: normal; font-variant-emoji: normal; vertical-align: baseline; white-space: pre-wrap;&quot;&gt;FLOWCHART&lt;/span&gt;&lt;/span&gt;" style="text;html=1;align=center;verticalAlign=middle;resizable=0;points=[];autosize=1;strokeColor=none;fillColor=none;" vertex="1" parent="1">
          <mxGeometry x="415" y="250" width="140" height="40" as="geometry" />
        </mxCell>
        <mxCell id="kPTPFct4EZHVwnSOma2R-136" value="&lt;font style=&quot;font-size: 14px;&quot;&gt;BUS TICKING SYSTEM&lt;/font&gt;" style="text;whiteSpace=wrap;html=1;" vertex="1" parent="1">
          <mxGeometry x="410" y="290" width="180" height="40" as="geometry" />
        </mxCell>
      </root>
    </mxGraphModel>
  </diagram>
</mxfile>
